<svg width="30" height="30" fill="none" xmlns="http://www.w3.org/2000/svg"><path fill-rule="evenodd" clip-rule="evenodd" d="M30 15c0-8.283-6.717-15-15-15C6.717 0 0 6.717 0 15c0 8.283 6.717 15 15 15 8.283 0 15-6.717 15-15zM6.839 20.642c-.213-.548-.359-1.174-.4-2.09-.042-.92-.052-1.213-.052-3.552 0-2.34.01-2.633.051-3.551.042-.917.188-1.543.401-2.09a4.22 4.22 0 01.993-1.526c.43-.439.951-.778 1.526-.994.548-.213 1.174-.358 2.09-.4.92-.042 1.213-.052 3.552-.052 2.34 0 2.633.01 3.551.052.917.042 1.543.187 2.09.4a4.218 4.218 0 011.526.994c.439.43.778.95.994 1.525.213.548.359 1.174.4 2.09.042.92.052 1.213.052 3.552 0 2.34-.01 2.633-.052 3.551-.042.917-.187 1.543-.4 2.09a4.22 4.22 0 01-.994 1.526 4.22 4.22 0 01-1.525.994c-.548.213-1.174.358-2.09.4-.92.042-1.213.052-3.552.052-2.34 0-2.633-.01-3.551-.052-.917-.042-1.543-.187-2.09-.4a4.404 4.404 0 01-2.52-2.52zM8.286 9.92c.138-.374.358-.712.644-.99.278-.286.616-.507.99-.645.304-.118.76-.258 1.6-.296.908-.041 1.18-.05 3.48-.05s2.572.008 3.48.05c.84.038 1.296.178 1.6.296.374.138.713.359.99.645.286.278.506.616.645.99.118.303.258.76.296 1.6.041.908.05 1.18.05 3.48s-.009 2.572-.05 3.48c-.038.84-.178 1.296-.296 1.6a2.669 2.669 0 01-.645.99 2.668 2.668 0 01-.99.645c-.303.118-.76.258-1.6.296-.908.042-1.18.05-3.48.05s-2.572-.008-3.48-.05c-.84-.038-1.296-.178-1.6-.296a2.852 2.852 0 01-1.634-1.635c-.118-.304-.259-.76-.297-1.6-.042-.908-.05-1.18-.05-3.48s.008-2.572.05-3.48c.038-.84.178-1.296.297-1.6zM15 19.423a4.423 4.423 0 100-8.846 4.423 4.423 0 000 8.846zm-4.598-7.987a1.034 1.034 0 100-2.068 1.034 1.034 0 000 2.068zM12.13 15a2.871 2.871 0 105.742 0 2.871 2.871 0 00-5.742 0z" fill="#CACACA"/></svg>