<svg width="191" height="31" fill="none" xmlns="http://www.w3.org/2000/svg"><path d="M43 25V4h5.55v7.8h8.1V4h5.55v21h-5.55v-8.1h-8.1V25H43zM65.486 5.2c0-.72.27-1.32.81-1.8.54-.5 1.22-.75 2.04-.75.82 0 1.5.25 2.04.75.54.48.81 1.08.81 1.8 0 .7-.27 1.3-.81 1.8s-1.22.75-2.04.75c-.82 0-1.5-.25-2.04-.75s-.81-1.1-.81-1.8zm.3 19.8V9.4h5.1V25h-5.1zm9.668-2.37c-1.34-1.48-2.01-3.39-2.01-5.73 0-2.34.67-4.25 2.01-5.73 1.34-1.48 2.97-2.22 4.89-2.22 1.38 0 2.57.4 3.57 1.2.46.36.82.76 1.08 1.2h.3V9.4h5.1v21.3h-14.85v-4.05h9.75V22.6h-.3c-.28.44-.64.82-1.08 1.14-.98.74-2.17 1.11-3.57 1.11-1.92 0-3.55-.74-4.89-2.22zm4.14-8.37c-.6.64-.9 1.52-.9 2.64s.3 2 .9 2.64c.6.64 1.4.96 2.4.96s1.8-.32 2.4-.96c.6-.64.9-1.52.9-2.64s-.3-2-.9-2.64c-.6-.64-1.4-.96-2.4-.96s-1.8.32-2.4.96zM93.38 25V4h5.1v7.5h.3c.28-.48.64-.9 1.08-1.26 1.02-.86 2.21-1.29 3.57-1.29 1.84 0 3.27.56 4.29 1.68 1.04 1.1 1.56 2.69 1.56 4.77V25h-5.1v-8.85c0-.9-.24-1.6-.72-2.1s-1.14-.75-1.98-.75c-.86 0-1.58.32-2.16.96-.56.62-.84 1.45-.84 2.49V25h-5.1zm27.158 5.7V9.4h5.1v2.1h.3c.28-.46.66-.88 1.14-1.26 1.1-.86 2.27-1.29 3.51-1.29 1.92 0 3.55.76 4.89 2.28 1.34 1.5 2.01 3.49 2.01 5.97 0 2.48-.67 4.48-2.01 6-1.34 1.5-2.97 2.25-4.89 2.25-1.26 0-2.43-.42-3.51-1.26a4.61 4.61 0 01-1.14-1.29h-.3v7.8h-5.1zm6-16.38c-.6.68-.9 1.64-.9 2.88s.3 2.2.9 2.88c.6.68 1.4 1.02 2.4 1.02s1.8-.34 2.4-1.02c.6-.68.9-1.64.9-2.88s-.3-2.2-.9-2.88c-.6-.68-1.4-1.02-2.4-1.02s-1.8.34-2.4 1.02zm14.746 8.88c-1.34-1.52-2.01-3.52-2.01-6s.67-4.47 2.01-5.97c1.34-1.52 2.97-2.28 4.89-2.28 1.24 0 2.41.43 3.51 1.29.46.38.84.8 1.14 1.26h.3V9.4h5.1V25h-5.1v-2.1h-.3c-.28.48-.66.91-1.14 1.29-1.08.84-2.25 1.26-3.51 1.26-1.92 0-3.55-.75-4.89-2.25zm4.14-8.88c-.6.68-.9 1.64-.9 2.88s.3 2.2.9 2.88c.6.68 1.4 1.02 2.4 1.02s1.8-.34 2.4-1.02c.6-.68.9-1.64.9-2.88s-.3-2.2-.9-2.88c-.6-.68-1.4-1.02-2.4-1.02s-1.8.34-2.4 1.02zm12.886 5.58h5.1c.08.3.25.58.51.84.54.54 1.32.81 2.34.81 1.4 0 2.1-.35 2.1-1.05 0-.32-.2-.57-.6-.75-.4-.2-1-.4-1.8-.6-.66-.16-1.09-.26-1.29-.3-.2-.04-.62-.15-1.26-.33-.64-.2-1.1-.37-1.38-.51-.26-.16-.63-.38-1.11-.66-.46-.3-.8-.6-1.02-.9-.2-.32-.39-.71-.57-1.17-.18-.48-.27-.99-.27-1.53 0-1.32.59-2.45 1.77-3.39 1.18-.94 2.84-1.41 4.98-1.41 2.68 0 4.8.88 6.36 2.64a6.53 6.53 0 011.29 2.61h-4.95c-.12-.32-.26-.57-.42-.75-.46-.5-1.12-.75-1.98-.75-1.2 0-1.8.35-1.8 1.05 0 .34.2.6.6.78.4.18 1.01.35 1.83.51 2.06.48 3.45.9 4.17 1.26 1.8.88 2.7 2.23 2.7 4.05 0 1.44-.64 2.65-1.92 3.63-1.26.98-3.07 1.47-5.43 1.47-2.9 0-5.11-.92-6.63-2.76a6.113 6.113 0 01-1.32-2.79zm16.641 0h5.1c.08.3.25.58.51.84.54.54 1.32.81 2.34.81 1.4 0 2.1-.35 2.1-1.05 0-.32-.2-.57-.6-.75-.4-.2-1-.4-1.8-.6-.66-.16-1.09-.26-1.29-.3-.2-.04-.62-.15-1.26-.33-.64-.2-1.1-.37-1.38-.51-.26-.16-.63-.38-1.11-.66-.46-.3-.8-.6-1.02-.9-.2-.32-.39-.71-.57-1.17-.18-.48-.27-.99-.27-1.53 0-1.32.59-2.45 1.77-3.39 1.18-.94 2.84-1.41 4.98-1.41 2.68 0 4.8.88 6.36 2.64a6.53 6.53 0 011.29 2.61h-4.95c-.12-.32-.26-.57-.42-.75-.46-.5-1.12-.75-1.98-.75-1.2 0-1.8.35-1.8 1.05 0 .34.2.6.6.78.4.18 1.01.35 1.83.51 2.06.48 3.45.9 4.17 1.26 1.8.88 2.7 2.23 2.7 4.05 0 1.44-.64 2.65-1.92 3.63-1.26.98-3.07 1.47-5.43 1.47-2.9 0-5.11-.92-6.63-2.76a6.113 6.113 0 01-1.32-2.79z" fill="#fff"/><path fill-rule="evenodd" clip-rule="evenodd" d="M6 6v18h18L6 6zM0 0v30h30V0H0z" fill="#FF6E30"/></svg>