<svg width="25" height="25" fill="none" xmlns="http://www.w3.org/2000/svg"><path d="M24.911 22.814l-5.057-4.457c1.487-1.98 2.292-4.403 2.292-6.95 0-3.05-1.156-5.909-3.245-8.065C16.812 1.186 14.03 0 11.073 0s-5.74 1.19-7.829 3.342C1.152 5.494 0 8.357 0 11.407c0 3.045 1.155 5.912 3.244 8.064 2.09 2.156 4.869 3.343 7.829 3.343 2.473 0 4.82-.83 6.743-2.358l5.058 4.453a.3.3 0 00.214.091.294.294 0 00.214-.091l1.61-1.654a.312.312 0 00.088-.22.319.319 0 00-.089-.221zM16.92 17.43c-1.565 1.608-3.639 2.494-5.846 2.494-2.207 0-4.282-.886-5.847-2.494a8.603 8.603 0 01-2.42-6.023c0-2.274.86-4.415 2.42-6.023 1.565-1.608 3.64-2.494 5.847-2.494 2.207 0 4.285.882 5.846 2.494a8.602 8.602 0 012.422 6.023c0 2.274-.86 4.414-2.422 6.023z" fill="#BCBCBC"/></svg>