<svg width="30" height="30" viewBox="0 0 30 30" fill="none" xmlns="http://www.w3.org/2000/svg">
<path fill-rule="evenodd" clip-rule="evenodd" d="M30 15C30 6.717 23.283 0 15 0C6.717 0 0 6.717 0 15C0 23.283 6.717 30 15 30C23.283 30 30 23.283 30 15ZM6.83899 20.6419C6.62613 20.094 6.48033 19.468 6.43867 18.5511C6.39656 17.6326 6.38672 17.3392 6.38672 15C6.38672 12.6608 6.39656 12.3674 6.43845 11.4489C6.48033 10.532 6.6259 9.90601 6.83899 9.35806C7.05505 8.78334 7.39426 8.26286 7.83234 7.83257C8.26263 7.39426 8.78334 7.05505 9.35806 6.83876C9.90601 6.62613 10.532 6.48056 11.4489 6.4389C12.3674 6.39679 12.6608 6.38672 15 6.38672C17.3392 6.38672 17.6326 6.39679 18.5511 6.43867C19.468 6.48056 20.094 6.62613 20.6419 6.83899C21.2167 7.05528 21.7374 7.39426 22.1674 7.83257C22.6057 8.26263 22.9449 8.78334 23.1612 9.35806C23.3741 9.90601 23.5197 10.532 23.5613 11.4489C23.6034 12.3674 23.6133 12.6608 23.6133 15C23.6133 17.3392 23.6034 17.6326 23.5611 18.5513C23.5194 19.468 23.3736 20.0942 23.1608 20.6419C22.9445 21.2167 22.6055 21.7374 22.1674 22.1674C21.7371 22.6057 21.2167 22.9447 20.6417 23.161C20.094 23.3739 19.4678 23.5194 18.5511 23.5613C17.6324 23.6032 17.3392 23.6133 14.9998 23.6133C12.6606 23.6133 12.3672 23.6032 11.4487 23.5613C10.532 23.5194 9.90578 23.3739 9.35806 23.161C8.20107 22.7135 7.28645 21.7989 6.83899 20.6419ZM8.28552 9.92004C8.42354 9.54605 8.64372 9.20753 8.92983 8.92967C9.20769 8.64357 9.54598 8.42338 9.9202 8.28537C10.2237 8.16749 10.6796 8.02719 11.5194 7.98897C12.4278 7.94754 12.7002 7.93861 15 7.93861C17.3 7.93861 17.5724 7.94731 18.4806 7.98874C19.3204 8.02719 19.7765 8.16749 20.0798 8.28537C20.454 8.42338 20.7925 8.64357 21.0702 8.92967C21.3563 9.20753 21.5765 9.54582 21.7147 9.92004C21.8326 10.2235 21.9729 10.6797 22.0111 11.5195C22.0525 12.4277 22.0615 12.7 22.0615 15.0001C22.0615 17.2999 22.0525 17.5722 22.0111 18.4807C21.9729 19.3204 21.8326 19.7764 21.7147 20.0799C21.5765 20.4541 21.3565 20.7924 21.0704 21.0702C20.7925 21.3563 20.4543 21.5765 20.08 21.7146C19.7765 21.8327 19.3204 21.973 18.4806 22.0112C17.5724 22.0526 17.3003 22.0613 15.0002 22.0613C12.7 22.0613 12.4276 22.0526 11.5196 22.0112C10.6799 21.973 10.2237 21.8327 9.9202 21.7146C9.16901 21.4248 8.57529 20.8311 8.28552 20.0799C8.16765 19.7764 8.02735 19.3204 7.98889 18.4807C7.94747 17.5722 7.93877 17.2999 7.93877 15.0001C7.93877 12.7 7.94747 12.4277 7.98889 11.5195C8.02712 10.6797 8.16742 10.2235 8.28552 9.92004ZM15 19.4228C17.4429 19.4228 19.4231 17.4427 19.4231 14.9998C19.4231 12.557 17.4429 10.5769 15 10.5769C12.5574 10.5769 10.5771 12.557 10.5771 14.9998C10.5771 17.4427 12.5574 19.4228 15 19.4228ZM10.4022 11.4357C10.9731 11.4357 11.4359 10.9729 11.4359 10.4021C11.4359 9.83124 10.9731 9.36844 10.4022 9.36844C9.83139 9.36844 9.36859 9.83124 9.36859 10.4021C9.36882 10.9729 9.83139 11.4357 10.4022 11.4357ZM12.1289 15.0001C12.1289 16.5858 13.4143 17.8712 15 17.8712C16.5857 17.8712 17.8711 16.5858 17.8711 15.0001C17.8711 13.4144 16.5857 12.129 15 12.129C13.4143 12.129 12.1289 13.4144 12.1289 15.0001Z" fill="#CACACA"/>
</svg>
